<svg xmlns="http://www.w3.org/2000/svg" width="1468.866" height="1120" viewBox="0 0 1468.866 1120">
  <g id="Patterns" transform="translate(9.98 18.988)">
    <g id="Mohaka" transform="translate(-9.98 -18.988)">
      <g id="Shape" transform="translate(0 0)">
        <path id="Path_1" data-name="Path 1" d="M7.743,13.626C74.766,10.406,141.425,1.073,208.539.181c-3.319,44.191-4.346,88.519-6.993,132.757C136.679,137.231,72.493,149.148,7.425,150.7,6.552,105.01,7,59.309,7.743,13.626Z" transform="translate(-0.686 -0.028)" fill="#228085" fill-rule="evenodd"/>
        <path id="Path_2" data-name="Path 2" d="M417.424,10.471c57.537,7.186,102.763,8.078,158.236,4.694,1.564,47.921,6.939,95.815,8.085,143.918-59.575,2.274-113.676-7.123-173.541-15.984S284.3,128.646,222.693,132.967c2.274-44.255,2.483-88.665,7.43-132.7C290.407-1.118,359.886,3.294,417.424,10.471Z" transform="translate(-21.442 -0.012)" fill="#d55151" fill-rule="evenodd"/>
        <path id="Path_3" data-name="Path 3" d="M612.4,16.321c61.049-5.067,122.033-2.729,183.172-1.892-.164,45.483.6,90.966.555,136.45-58.52,1.128-116.795,6.367-175.224,9.451C620.108,112.172,615.534,64.333,612.4,16.321Z" transform="translate(-58.933 -1.277)" fill="#242c2d" fill-rule="evenodd"/>
        <path id="Path_4" data-name="Path 4" d="M815.063,14.564c60.093.755,120.105,4.421,180.157.146,1.717,44.128,3.787,88.3,3.091,132.475-60.861,3.565-121.772,2.729-182.693,3.8C815.664,105.512,814.9,60.038,815.063,14.564Z" transform="translate(-78.429 -1.412)" fill="#f4b943" fill-rule="evenodd"/>
        <path id="Path_5" data-name="Path 5" d="M1014.4,13.785c66.312-4.821,132.605-9.479,199.151-8.751-2.531,44.874-4.474,89.774-7.61,134.631-62.922-2.311-125.691,2.838-188.441,6.613C1018.2,102.086,1016.126,57.913,1014.4,13.785Z" transform="translate(-97.608 -0.488)" fill="#d55151" fill-rule="evenodd"/>
        <path id="Path_6" data-name="Path 6" d="M1407.92,154.144c-3.226,45.829-10.674,91.212-14.777,136.959-60.13-6.368-120.1-14.782-180.624-15.865,3.95-45.092,9.264-90.42,12.454-135.476s5.079-89.738,7.628-134.739c60.789.855,121.208,8.032,181.88,11.471C1411.933,62.359,1411.138,108.315,1407.92,154.144Z" transform="translate(-116.668 -0.494)" fill="#242c2d"/>
        <path id="Path_7" data-name="Path 7" d="M1435.266,17.039c56.27,2.774,112.116-7.277,168.35-6.277,1.211,49.176,3.814,98.343,2.214,147.548-59.027-1.11-118.135.491-177.081-3.639C1431.868,108.842,1432.736,62.9,1435.266,17.039Z" transform="translate(-137.47 -1.04)" fill="#f4b943" fill-rule="evenodd"/>
        <path id="Path_8" data-name="Path 8" d="M188.508,321.534c-2.573,48.4-2.419,70.581-2.992,113.044-59.447.627-118.64,2.029-178.16,4.285,0-40.662,0-55.945.273-102.893s1.019-120.486-.273-172.864c64.94-3.894,129.3-15.446,194.149-17.537C198.112,199.193,191.064,273.123,188.508,321.534Z" transform="translate(-0.726 -14.015)" fill="#f4b943" fill-rule="evenodd"/>
        <path id="Path_9" data-name="Path 9" d="M205.107,450.435c-1.227-47.912,0-115.436,4.429-165.095s7.849-91.094,11.077-138.8c63.476-3.238,126.744,2.065,189.784,10.3-5.6,46.82-11.877,86.472-21.826,134.776S375.111,407,379.731,454.984s10.376,81.142,18.042,125.534c-61.449-11.926-123.925-9.5-185.991-7.568C209.873,528.748,206.344,498.3,205.107,450.435Z" transform="translate(-19.707 -14.016)" fill="#228085" fill-rule="evenodd"/>
        <path id="Path_10" data-name="Path 10" d="M797.4,299.186c-61.022.673-147.869,21.414-212.547,21.349S469.569,297.2,408.348,289.543c9.267-43.4,17.415-86.864,20.917-130.91,59.447,7.987,113.284,18.955,175.433,15.781s142.225-12.906,201.628-13.352,98.929,2.793,154.162,0c-2.666,44.137-7.827,88.128-10.845,132.019C893.778,295.774,858.43,298.5,797.4,299.186Z" transform="translate(-39.303 -15.272)" fill="#eaddcd" fill-rule="evenodd"/>
        <path id="Path_11" data-name="Path 11" d="M1191.185,289.934c-4,45.875-5.839,93.123-4.42,139.388-65.109-5.631-130.318-11.062-195.734-10.916.909-42.817,6.8-83.6,12.905-126.342s10.484-87.81,11.288-131.42c62.742-4.111,125.492-8.833,188.469-6.831C1200.4,199.514,1195.188,244.069,1191.185,289.934Z" transform="translate(-95.36 -14.763)" fill="#5aa7b2" fill-rule="evenodd"/>
        <path id="Path_12" data-name="Path 12" d="M1596.785,333.505c-.913,45.593,2.919,68.016,5.314,108.841-63.112-2.856-126.215-.737-189.408-1.455-1.338-41.563-4.411-65.879-2.015-111.844s12.581-108.249,16.187-157.954c59.045,2.565,118.117.8,177.117,3.7C1602.1,224.446,1597.716,287.913,1596.785,333.505Z" transform="translate(-135.646 -16.471)" fill="#d55151" fill-rule="evenodd"/>
        <path id="Path_13" data-name="Path 13" d="M407.514,301.4c58.2,7.9,117.307,30.809,176.664,31.164-8.893,49.44-16.708,101.013-13.28,151.2-58.938-6.886-115.9-24.2-174.214-34.567C394.464,400.212,398.5,349.56,407.514,301.4Z" transform="translate(-38.123 -29.007)" fill="#242c2d" fill-rule="evenodd"/>
        <path id="Path_14" data-name="Path 14" d="M762.644,459.419c-56.828,14.846-113.957,31.047-173.387,24.925-2.183-50.3-1.164-100.144,11.186-149.485,65.476-.054,144.74-20.64,206.261-21.34s102.462-3.293,159.965-6.186c-9.095,41.754-13.06,83.4-14.233,125.943s4.271,85.689,9.154,128c-56.2-1.4-112.389,8.007-163.616,31.685C784.561,548.458,765.145,506.494,762.644,459.419Z" transform="translate(-56.62 -29.578)" fill="#d55151" fill-rule="evenodd"/>
        <path id="Path_15" data-name="Path 15" d="M1393.212,452.516c2.811,43.764,12.536,100.075,14.479,143.694-63.221.783-132.713-.6-195.744-9.142-1.9-46.475-2.973-96.637-4.429-143.2s.461-93.377,4.429-139.834c60.536,1.056,120.512,9.461,180.624,15.9C1388.8,363.9,1390.483,408.761,1393.212,452.516Z" transform="translate(-116.14 -29.26)" fill="#228085" fill-rule="evenodd"/>
        <path id="Path_16" data-name="Path 16" d="M7.365,467.853c59.593-.2,119-5.458,178.506-8.087.546,47.594,4.784,95.024,6.893,142.545C131.044,602.8,69.4,604.294,7.7,604.375Q7.675,536.151,7.365,467.853Z" transform="translate(-0.727 -44.242)" fill="#1a9e78" fill-rule="evenodd"/>
        <path id="Path_17" data-name="Path 17" d="M570.909,499.355c59.111,6.523,116.612-10.179,173.3-24.761,2.528,47.03,21.871,88.938,35.3,133.521-56.41,25.87-112.657,39.143-175.406,35.986S478.286,621.7,416.191,610.5c-8.63-48.285-16.905-96.589-19.424-145.528C455.159,475.149,511.807,492.851,570.909,499.355Z" transform="translate(-38.189 -44.743)" fill="#5aa7b2" fill-rule="evenodd"/>
        <path id="Path_18" data-name="Path 18" d="M991.045,446.5c65.389.182,130.625,5.176,195.707,11.125,1.5,46.439,5.242,92.786,7.14,139.179-64.649-9.224-129.143-20.213-194.524-22.387C994.119,531.937,990.481,489.327,991.045,446.5Z" transform="translate(-95.355 -42.966)" fill="#1a9e78" fill-rule="evenodd"/>
        <path id="Path_19" data-name="Path 19" d="M1413.08,468.643c63.094,2.111,126.242.146,189.363,1.383,3.823,46.775-1.6,93.077-5.242,139.67-57.21-9.851-114.99-12.2-172.95-11.552C1422.29,554.834,1415.927,511.889,1413.08,468.643Z" transform="translate(-135.963 -45.096)" fill="#eaddcd" fill-rule="evenodd"/>
        <path id="Path_20" data-name="Path 20" d="M7.7,619.54c61.694-.081,127.171-1.652,188.874-2.144,1.819,42.509.255,87.114,0,129.678-63.148,1.9-125.761,9.151-188.874,11.4C6.88,713.016,7.671,665.023,7.7,619.54Z" transform="translate(-0.723 -59.407)" fill="#eaddcd" fill-rule="evenodd"/>
        <path id="Path_21" data-name="Path 21" d="M215.861,745.37c1.064-43.164-4.547-85.136-1.728-127.627,68.605-3.693,159.116-1.061,220.909,12.12s95.791,23.794,153.146,29.4c6.057,44.764,17.77,91.248,12.823,137.132-41.933,1.2-101.535-13.073-136.911-22.423s-28.464-7.277-56.9-14.182c-1.592,43.819-16.806,84.8-23.827,127.626-58.3-11.962-117.476-14.654-176.779-11.006C211,833.143,214.779,788.534,215.861,745.37Z" transform="translate(-19.893 -59.294)" fill="#f4b943" fill-rule="evenodd"/>
        <path id="Path_22" data-name="Path 22" d="M400.618,889.037c8.131-44.637,17.765-86.214,21.921-130.678,64.5,13.973,128.623,35.377,195.018,37.924-.154-46.739-2.083-91.662-14.242-136.873,61.84,2.884,119.31-10.541,175.448-36.248,13.7,47.485,16.719,98.378,18.164,147.2s-1.118,95.851-6.074,144.228C753.022,920.548,698.7,925.742,665.146,927s-35.721-.108-63.586-.437c-4.547,39.228-14.04,78.227-14.805,118.057-66.331-2.666-132.036-11.072-198.186-15.4C387.414,982.952,392.5,933.666,400.618,889.037Z" transform="translate(-37.384 -59.962)" fill="#1a9e78" fill-rule="evenodd"/>
        <path id="Path_23" data-name="Path 23" d="M1010.528,588.863c60.148,4.647,110.579,12.2,168.675,19.706,0,40.617,3.407,83.907,5.884,124.406-56.5-3.42-107.028-7.817-165.286-3.632S895.143,752.44,838.269,771.6c-2.728-49.54-6.61-103.583-18.942-151.75C876.42,590.482,950.376,584.215,1010.528,588.863Z" transform="translate(-78.841 -56.529)" fill="#228085" fill-rule="evenodd"/>
        <path id="Path_24" data-name="Path 24" d="M1380.59,914.687c-10.909,71.943-11.451,59.263-11.388,118.841-46.808-14.3-49.564-8.83-107.1-17.47s-180.036,2.079-245.471,17.47c-6.073-48.326,10.231-102.813,0-150.352,61.151-15.6,123.233-25.98,186.3-20.813,3.95-83.525-3.29-166.4-6.625-250.1,62.488,12.08,126.613-4.994,188.948,3.566C1395.782,700.979,1391.507,842.824,1380.59,914.687Z" transform="translate(-97.688 -58.913)" fill="#5aa7b2" fill-rule="evenodd"/>
        <path id="Path_25" data-name="Path 25" d="M1416.275,922.459c7.321-46.593,10.565-119.5,9.887-170.107s-.633-92.577-2.91-141c58,.346,115.785,2.156,172.977,11.826-3.1,47.7-4.212,92.176-2.829,141.371s5.332,116.073,1.979,161.283-4.013,64.794-5.35,104.85c-62.19-2.82-124.317,1.329-186.67-1.826C1406.433,987.6,1408.945,969.055,1416.275,922.459Z" transform="translate(-135.027 -58.826)" fill="#d55151" fill-rule="evenodd"/>
        <path id="Path_26" data-name="Path 26" d="M187.464,890.2c59.111-3.93,118.441-.964,176.587,10.916-8.448,46.6-12.995,93.875-12.313,141.271-57.565-3.019-115.721-7.276-173.259-5.712s-114.239,4.772-171.668,6.571c1.537-41.7-.255-64.585-.1-110.983S8.375,821.1,7.3,770.671q94.578-7.622,189.156-12.2C196.039,802.683,191.392,846.319,187.464,890.2Z" transform="translate(-0.663 -72.979)" fill="#5aa7b2" fill-rule="evenodd"/>
        <path id="Path_27" data-name="Path 27" d="M839.843,782.855c50.254-16.037,101.289-29.792,153.841-35.6.768,49.713-1.97,99.662,5.712,149-54.08,14-111.18,23.172-166.408,31C835.617,879.456,841.544,830.767,839.843,782.855Z" transform="translate(-80.155 -71.9)" fill="#d55151" fill-rule="evenodd"/>
        <path id="Path_28" data-name="Path 28" d="M1010.79,746.769c63.528-7.45,127.58-4.5,191.2.255,1.618,42.609,2.522,85.244.488,127.853-62.877-5.039-125.239,5.113-185.974,20.923C1008.8,846.431,1011.558,796.482,1010.79,746.769Z" transform="translate(-97.26 -71.418)" fill="#f4b943" fill-rule="evenodd"/>
        <path id="Path_29" data-name="Path 29" d="M811.953,941.585c58.993-8.324,109.871-15.344,166.358-29.561,6.561,47.621,10.475,95.338,9.408,143.429-61.839,8.8-120.278,11.822-183.6,14.406s-131.609,4.9-195.94,2.521c1.083-39.885,6.432-80.763,14.262-119.956C683.481,956.873,752.961,949.9,811.953,941.585Z" transform="translate(-58.528 -87.751)" fill="#228085" fill-rule="evenodd"/>
        <path id="Path_30" data-name="Path 30" d="M6.286,1071.785c57.129.443,114.1-4.293,171.2-5.595-1.964,48.9-3.638,97.791-6.493,146.641-56.965-2.8-113.976-4.3-170.968-5.459C2.357,1162.173,4.231,1116.974,6.286,1071.785Z" transform="translate(-0.02 -102.583)" fill="#d55151" fill-rule="evenodd"/>
        <path id="Path_31" data-name="Path 31" d="M195.679,1066.168c57.984-1.139,115.848,2.558,173.7,5.848,1.091,46.907,2.973,93.787,2.682,140.7-60.929-.09-121.942,3-182.88.09C192.032,1163.922,193.715,1115.063,195.679,1066.168Z" transform="translate(-18.218 -102.561)" fill="#242c2d" fill-rule="evenodd"/>
        <path id="Path_32" data-name="Path 32" d="M388.566,1072.69c66.141,3.859,136.405,9.571,202.664,12.011-1.21,40.418,3.015,88.31,3.615,128.7-66.386-1.907-137.22.036-203.624,0C391.539,1166.45,389.658,1119.57,388.566,1072.69Z" transform="translate(-37.4 -103.208)" fill="#5aa7b2" fill-rule="evenodd"/>
        <path id="Path_33" data-name="Path 33" d="M849.722,1082.614c63.968-3.941,84.921-5.7,140.052-12.084-6.281,50.793-13.647,100.8-14.325,151.657-52.447-3.588-70.163-6.372-131.411-8.08s-160.846-2.874-230.015-5.287c-5.156-40.544-12.161-83.357-6.349-124.091C679.68,1089.248,785.755,1086.554,849.722,1082.614Z" transform="translate(-58.268 -103.001)" fill="#eaddcd" fill-rule="evenodd"/>
        <path id="Path_34" data-name="Path 34" d="M1026.209,1068.972c55.014-8.261,110.127-18.193,165.991-16.277-3.5,50.631-5.866,101.334-9.092,151.973-57.029,4.546-113.679,20.534-171.188,15.69C1016.819,1169.9,1024.32,1119.675,1026.209,1068.972Z" transform="translate(-97.369 -101.261)" fill="#242c2d" fill-rule="evenodd"/>
        <path id="Path_35" data-name="Path 35" d="M1210.421,1052.72c58.2,2.44,115.713,12.518,173.7,17.543-1.012,45.895,7.746,91.148,10.367,136.853-64.4,0-128.791-6.987-193.168-2.422C1204.547,1154.053,1206.942,1103.351,1210.421,1052.72Z" transform="translate(-115.59 -101.287)" fill="#1a9e78" fill-rule="evenodd"/>
        <path id="Path_36" data-name="Path 36" d="M1403.582,1072.13c62.082,5.034,124.344.66,186.535,1.907-.551,44.855.452,89.7.6,134.557-58.927-.506-117.846.271-176.764.389C1411.309,1163.287,1402.587,1118.025,1403.582,1072.13Z" transform="translate(-135.041 -103.154)" fill="#eaddcd" fill-rule="evenodd"/>
      </g>
    </g>
  </g>
</svg>
